<svg xmlns="http://www.w3.org/2000/svg" viewBox="0 0 268.4 71.2">
  <defs>
    <style>
      .cls-1 {
        fill: #fff;
      }
      .cls-2 {
        fill: #028002;
      }
    </style>
  </defs>
  <title>FreeCams - Discover the world of MyFreeCams</title>
  <path
    class="cls-1"
    d="M2.1,42.8h9.1a2,2,0,0,0,2-2V27.4h17a2,2,0,0,0,1.5-.69V40.8a2,2,0,0,0,2,2H42a2,2,0,0,0,2-2v-16a.76.76,0,0,0,0-.15,4.58,4.58,0,0,1,.77-2.88,2.33,2.33,0,0,1,1.86-.68c.75.07,1.38-.13,1.38,1.68a7.59,7.59,0,0,1-.07,1l-.1.6A2,2,0,0,0,48.27,26a2,2,0,0,0,1.53.71h7.7v.1c0,6.48,1.14,10.77,3.49,13.11s6,3.27,12.61,3.39h.7c4.75,0,8.46-.77,10.94-2.23a8.54,8.54,0,0,0,3.53-3.54A8.65,8.65,0,0,0,90.52,40c2.36,2.24,6.11,3.24,12.54,3.35h.74c4.7,0,8.43-.76,11-2.23a8.62,8.62,0,0,0,4.46-6.37,10.74,10.74,0,0,0,1.84,3.85c2.43,3,7.47,4.44,16.33,4.55h1.13c8,0,13-.88,15.74-2.76A8.34,8.34,0,0,0,157,37.2a9.5,9.5,0,0,0,2.77,3.38c2.15,1.67,5.26,2.52,9.23,2.52h.4a18.55,18.55,0,0,0,7.12-1.22,1.86,1.86,0,0,0,.21.28,2,2,0,0,0,1.47.64h8.2a2,2,0,0,0,1.72-1,2,2,0,0,0,1.78,1.1h8.2a2,2,0,0,0,2-2V25.1a.76.76,0,0,0,0-.15,4,4,0,0,1,.9-2.8,4.2,4.2,0,0,1,2.94-.86h.17a6.44,6.44,0,0,1,2.34.3,7.9,7.9,0,0,1,.26,2.5V40.9a2,2,0,0,0,2,2h8.2a2,2,0,0,0,2-2V25a.76.76,0,0,0,0-.15,3.75,3.75,0,0,1,.87-2.67,4.75,4.75,0,0,1,3-.88h.11c1.83,0,2.7.45,2.7,3V40.8a2,2,0,0,0,2,2h8.2a2,2,0,0,0,2-2V39A7.43,7.43,0,0,0,240.1,41c2.29,1.33,5.82,2,10.8,2h.9c5.89,0,9.8-.69,12.32-2.18,1.95-1.15,4.28-3.62,4.28-8.82v-.13C268.14,28,267,25.42,264.76,24l-.35-.2h.69a2,2,0,0,0,2-2v-.5c0-3.78-1.24-6.53-3.69-8.16C261.35,11.76,258,11.2,252,11.2c-5.72,0-9.61.64-11.9,2a7.68,7.68,0,0,0-3.44,4.44,9.56,9.56,0,0,0-2.43-3.4c-2.17-1.93-5.34-2.91-9.43-2.91-4.4,0-7.19,1.28-9,2.84-1.64-1.57-4.45-2.84-9.24-2.84a15.76,15.76,0,0,0-6.76,1.31,1.9,1.9,0,0,0-.3-.4,2,2,0,0,0-1.44-.61h-8.2a2,2,0,0,0-2,2v5.56a9,9,0,0,0-3.45-5.5c-2.34-1.63-6.11-2.36-12.25-2.36-5.43,0-9.08.66-11.19,2-1.64,1.07-3.61,3.41-3.61,8.48v.5a2,2,0,0,0,2,2h.54l-.16.11a10,10,0,0,0-1.25,1.18,2,2,0,0,0-1.83-1.19h-9.2a2,2,0,0,0-1.45.62,2,2,0,0,0-.55,1.47l.1,2.11c0,1.94-.42,2.61-.53,2.69-.33.19-2.14.71-6.47.71-5,0-6.38-.75-6.63-.92-.18-.42-1-2.73-1-11.28,0-5.73.66-7.43.84-7.78.33-.18,1.89-.82,7.16-.82,4,0,5.41.41,5.8.58a5.1,5.1,0,0,1,.4,2.62v1.5a2,2,0,0,0,2,2h9.2a2,2,0,0,0,1.46-.64,2,2,0,0,0,.54-1.5l-.1-1.33C158.29,9,157,5.19,154.4,3c-2.4-2.06-6.69-3-13.9-3-9.08,0-14.77,1.08-17.89,3.39s-4.82,7-4.89,13.72a9.22,9.22,0,0,0-1.84-2.56c-2.37-2.25-6.19-3.25-12.38-3.25-6.38,0-10.47,1.06-12.88,3.35a9.64,9.64,0,0,0-2.1,3.08,9.23,9.23,0,0,0-2.14-3.18C84,12.3,80.19,11.3,74,11.3c-6.38,0-10.47,1.06-12.88,3.35a9.63,9.63,0,0,0-2.19,3.26,9.41,9.41,0,0,0-2-3.73,9.78,9.78,0,0,0-7.7-3.08h0a11.62,11.62,0,0,0-5.71,1.18l-.1-.11a2,2,0,0,0-1.49-.67H33.7a2,2,0,0,0-2,2v3.59a2,2,0,0,0-1.5-.69h-17v-5h18a2,2,0,0,0,2-2V2.3a2,2,0,0,0-2-2H2.1a2,2,0,0,0-2,2V40.8A2,2,0,0,0,2.1,42.8Z"
  />
  <path
    class="cls-1"
    d="M67.39,53.72a3.61,3.61,0,0,0-1.45-.22,4.64,4.64,0,0,0-1.61.3,2.13,2.13,0,0,0-.63-.1H62.1a2,2,0,0,0-1.8,1.14,6.11,6.11,0,0,0-6.78-.22h0a2,2,0,0,0-1.61-.82H50.2a2,2,0,0,0-1.91,1.4l-.39,1.24-.39-1.24a2,2,0,0,0-1.91-1.4H43.9a2,2,0,0,0-1.63.84,6,6,0,0,0-3.35-.94,5.86,5.86,0,0,0-4.73,2.08,4.83,4.83,0,0,0-.5-.51,5.56,5.56,0,0,0-4-1.57,6.48,6.48,0,0,0-3.17.87,5.51,5.51,0,0,0-1.4,1.15,5,5,0,0,0-.71-.75l-.17-.13A6.67,6.67,0,0,0,20.6,53.7a5.84,5.84,0,0,0-3.83,1.22l-.05,0c0-.09-.09-.18-.15-.27a2.81,2.81,0,0,0,.33-1.17,2.61,2.61,0,0,0-.83-2.39A2.9,2.9,0,0,0,14,50.3h-.11a3,3,0,0,0-2,.86,2,2,0,0,0-.4.52,3.78,3.78,0,0,0-.36,1.17,6.68,6.68,0,0,0-1.72-1.32A7.9,7.9,0,0,0,5.6,50.6H2a2,2,0,0,0-2,2V65.3a2,2,0,0,0,1.94,2l3.59.1a8.39,8.39,0,0,0,3.9-1,6.44,6.44,0,0,0,1.87-1.5v.43a2,2,0,0,0,2,2h1.6a2,2,0,0,0,1.76-1.07A4.54,4.54,0,0,0,18,67a6.38,6.38,0,0,0,2.58.54h.2a7,7,0,0,0,3.64-1.12l.14-.11a4.35,4.35,0,0,0,.62-.59s0,0,0,0a6.26,6.26,0,0,0,7.23,1.15,6,6,0,0,0,1.81-1.44l0,.06.11.12a6.36,6.36,0,0,0,4.51,1.89h0a6.64,6.64,0,0,0,3.26-.86l.1-.06a6.08,6.08,0,0,0,2.22-2.52l.06-.12.06-.19.8,2.22A2,2,0,0,0,47.3,67.3h1.2A2,2,0,0,0,50.38,66l.79-2.2a6.7,6.7,0,0,0,1.15,1.78,6,6,0,0,0,4.43,2h.16a6.48,6.48,0,0,0,3.62-1.07,2,2,0,0,0,1.57.77h1.6a2,2,0,0,0,2-2v-6h.21a4.09,4.09,0,0,0,.79.09,2,2,0,0,0,2-2V55.6A2,2,0,0,0,67.39,53.72Z"
  />
  <path
    class="cls-1"
    d="M81,65.42a1.83,1.83,0,0,1-2,1.78H77.4a2,2,0,0,1-.65-.12,1.83,1.83,0,0,1-.28.14,7.47,7.47,0,0,1-1.68.28h-.17a4,4,0,0,1-3-1.4L71.49,66a5.12,5.12,0,0,1-1-3.14V59a2,2,0,0,1-1.7-2V55.8a2,2,0,0,1,1.7-2V53.5a2,2,0,0,1,2-2h1.6a2,2,0,0,1,1.3.49V51.9a2,2,0,0,1,2-2H79a2,2,0,0,1,2,2v1.82a5.06,5.06,0,0,1,.87,0,4.58,4.58,0,0,1,4.19,2.24,6.33,6.33,0,0,1,1.46-1.32,6,6,0,0,1,7.59,1,.76.76,0,0,1,.11.14,7.35,7.35,0,0,1,1.38,4.73V61A2,2,0,0,1,96,62.45,2,2,0,0,1,96.11,65a6.18,6.18,0,0,1-5,2.52h-.25a6,6,0,0,1-4.16-1.56A2,2,0,0,1,84.8,67.4H83.2a2,2,0,0,1-2-2S81.11,65.17,81,65.42Z"
  />
  <path
    class="cls-1"
    d="M127,65.25a2,2,0,0,0,2,2h1.6a2,2,0,0,0,1.81-1.15,1.6,1.6,0,0,0,.19.16l0,0a5.36,5.36,0,0,0,3.47,1.27l.47,0a5.62,5.62,0,0,0,1.47-.34,1.91,1.91,0,0,0,.76.15h1.5a2,2,0,0,0,2-2V51.9a2,2,0,0,0-2-2h-1.6a2,2,0,0,0-2,2v1.83a4.53,4.53,0,0,0-.52,0,4.9,4.9,0,0,0-3.58,1.18v-3a2,2,0,0,0-2-2H129a2,2,0,0,0-2,2v1.6h-.06a4.64,4.64,0,0,0-1.61.3,2.13,2.13,0,0,0-.63-.1h-1.6a2,2,0,0,0-1.94,1.54A6,6,0,0,0,117,53.7a6.31,6.31,0,0,0-3.25.92,2.31,2.31,0,0,0-.19.14l0-.06a2,2,0,0,0-1.6-.8h-1.6a2,2,0,0,0-1.94,1.52l-.09.37-.16-.5a2,2,0,0,0-1.91-1.39h-1.3A2,2,0,0,0,103,55.31l-.15.48-.11-.41a2,2,0,0,0-1.93-1.48H99.2a2,2,0,0,0-1.92,2.57l2.8,9.5A2,2,0,0,0,102,67.4h1.3A2,2,0,0,0,105.21,66l.33-1.07.35,1.1a2,2,0,0,0,1.91,1.39h1.3A2,2,0,0,0,111,66l.48-1.62a7.43,7.43,0,0,0,.8,1.18,6,6,0,0,0,4.42,2h.35a6.59,6.59,0,0,0,3.21-.86l.1-.06a5.57,5.57,0,0,0,.85-.67,2,2,0,0,0,1.87,1.29h1.6a2,2,0,0,0,2-2S126.86,64.83,127,65.25Z"
  />
  <path
    class="cls-1"
    d="M162.12,50.1a6.41,6.41,0,0,0-1.57-.3,4.92,4.92,0,0,0-3.85,1.37h0A4.7,4.7,0,0,0,155.32,54a2,2,0,0,0-1.19.85,6,6,0,0,0-3.66-1.11,6.31,6.31,0,0,0-3.25.92,6.07,6.07,0,0,0-2.2,2.47,7.52,7.52,0,0,0-.82,3.41v.12a7.19,7.19,0,0,0,1.72,4.93,6,6,0,0,0,4.37,2h.23a6.64,6.64,0,0,0,3.26-.86l.1-.06a6.13,6.13,0,0,0,1.42-1.27v.19a2,2,0,0,0,2,2h1.6a2,2,0,0,0,2-2V59.3a2,2,0,0,0,2-2V56a2,2,0,0,0-.32-1.09,2,2,0,0,0,.81-1.46l.1-1.3A2,2,0,0,0,162.12,50.1Z"
  />
  <path
    class="cls-1"
    d="M253.4,65.35a2,2,0,0,0,2,2H257a2,2,0,0,0,1.75-1,5.11,5.11,0,0,0,1,.56,6.56,6.56,0,0,0,2.68.58h.2a7,7,0,0,0,3.64-1.12l.14-.11a4.56,4.56,0,0,0,1.77-3.53v-.15a4.82,4.82,0,0,0-.69-2.22,1.27,1.27,0,0,0-.13-.19v0l.06-.06a2,2,0,0,0,.57-1.44A4.82,4.82,0,0,0,266.29,55l-.17-.13a6.67,6.67,0,0,0-3.62-1.14,5.77,5.77,0,0,0-3.83,1.22,4.46,4.46,0,0,0-.66.64,4.84,4.84,0,0,0-4.19-2,6.17,6.17,0,0,0-2.75.63l-.18.1a4.71,4.71,0,0,0-2.8-.73,5.17,5.17,0,0,0-2.08.33,2.08,2.08,0,0,0-.71-.13h-1.6a2,2,0,0,0-1.8,1.14,5.68,5.68,0,0,0-3.75-1.14,6.19,6.19,0,0,0-2.65.57,5.54,5.54,0,0,0-1.16.65,6.24,6.24,0,0,0-6.41-4.52,7.07,7.07,0,0,0-3.69,1,6.61,6.61,0,0,0-2.59,3c-.07.16-.12.34-.18.51a5.52,5.52,0,0,0-3.92-1.36h0a5.66,5.66,0,0,0-3.1.92,5.89,5.89,0,0,0-1.35,1.19.56.56,0,0,0,0-.08.76.76,0,0,0-.11-.14,5.54,5.54,0,0,0-4.46-1.89,5.69,5.69,0,0,0-3,.83,2,2,0,0,0-1-.81A3.79,3.79,0,0,0,203,53.5a4.6,4.6,0,0,0-1.61.3,2.13,2.13,0,0,0-.63-.1H200V52.6a2,2,0,0,0-2-2h-7.9a2,2,0,0,0-2,2v1.3h-1a2,2,0,0,0-1.91,1.41l-.33,1.07-.36-1.1a2,2,0,0,0-1.9-1.38h-1.1V52.6a2,2,0,0,0-2-2h-2.2a2,2,0,0,0-1.85,1.25l-2.35,5.81-2.35-5.81a2,2,0,0,0-1.85-1.25h-2.2a2,2,0,0,0-2,2V65.3a2,2,0,0,0,2,2h1.7a2,2,0,0,0,2-1.85l.26.62a2,2,0,0,0,1.85,1.23h1.3a2,2,0,0,0,1.85-1.25l.18-.42a2,2,0,0,0,2,1.67h1.57a2.08,2.08,0,0,0-.07.5v1.3a2,2,0,0,0,1.67,2l.6.1a1.84,1.84,0,0,0,.33,0h.3c1.5,0,3.53-.64,4.69-3.74L188.1,64V65.3a2,2,0,0,0,2,2h1.7a2,2,0,0,0,2-2V61.7h3.4v3.5a2,2,0,0,0,2,2h1.6a2,2,0,0,0,2-2V63.37a6.6,6.6,0,0,0,1.32,2.18,5.87,5.87,0,0,0,4.56,2h.25a6.16,6.16,0,0,0,4.4-1.86,5.88,5.88,0,0,0,4.45,1.85H218a6,6,0,0,0,4.73-2.34,6.17,6.17,0,0,0,5.13,2.33h.36a6.45,6.45,0,0,0,4.29-1.63,4.47,4.47,0,0,0,.44-.43,4.15,4.15,0,0,0,.7.75,5.18,5.18,0,0,0,3.45,1.3h.21a5.49,5.49,0,0,0,2-.38,2.14,2.14,0,0,0,.84.18h1.9a1.79,1.79,0,0,0,.79-.18,2,2,0,0,0,.81.18h1.6a2,2,0,0,0,2-2c.08-.32.2,0,.2,0a2,2,0,0,0,2,2.05h1.6a2,2,0,0,0,2-2.05C253.25,64.91,253.4,65.35,253.4,65.35Z"
  />
  <polygon
    class="cls-2"
    points="31.2 2.3 2.1 2.3 2.1 40.8 11.2 40.8 11.2 25.4 30.2 25.4 30.2 18.4 11.2 18.4 11.2 9.4 31.2 9.4 31.2 2.3"
  />
  <path
    class="cls-2"
    d="M55.4,15.5q-2.1-2.4-6.3-2.4a9.74,9.74,0,0,0-7.5,3l.3-2.6H33.7V40.8H42v-16a6.54,6.54,0,0,1,1.2-4.3,4.37,4.37,0,0,1,3.6-1.4c2.1,0,3.2,1.2,3.2,3.7a11.2,11.2,0,0,1-.1,1.3l-.1.6h7.8V22.3C57.5,19.4,56.8,17,55.4,15.5Z"
  />
  <path
    class="cls-2"
    d="M79.6,31.4v.5c0,1.5-.3,2.4-.9,2.8s-1.7.7-4.8.7c-2.5,0-4.2-.4-5-1.1s-1.2-2.4-1.2-4.8v-.6H87.9V26.5c0-5.2-.9-8.6-2.9-10.5s-5.5-2.7-11-2.7c-5.7,0-9.5.9-11.5,2.8s-3,5.4-3,10.7c0,6,1,9.8,2.9,11.7s5.5,2.7,11.2,2.8h.7c4.4,0,7.8-.7,10-2a6.61,6.61,0,0,0,3.5-6.2V31.6H79.6ZM67.7,24c.1-2.5.6-3.6,1-4s1.7-1,4.8-1H74c2.9,0,4.1.5,4.6.8.7.5,1,1.8,1,3.7V24Z"
  />
  <path
    class="cls-2"
    d="M109.2,31.4v.5c0,1.5-.3,2.4-.9,2.8s-1.7.7-4.8.7c-2.5,0-4.2-.4-5-1.1s-1.2-2.4-1.2-4.8v-.6h20.1V26.5c0-5.2-.9-8.6-2.9-10.5s-5.5-2.7-11-2.7c-5.7,0-9.5.9-11.5,2.8s-3,5.4-3,10.7c0,6,.9,9.8,2.9,11.7s5.5,2.7,11.2,2.8h.7c4.4,0,7.8-.7,10.1-2a6.61,6.61,0,0,0,3.5-6.2V31.6h-8.2ZM97.4,24c.1-2.5.6-3.6,1-4s1.7-1,4.8-1h.4c2.9,0,4.1.5,4.6.8.7.5,1,1.8,1,3.7V24Z"
  />
  <path
    class="cls-2"
    d="M147.5,26.4l.1,2.2c0,2.3-.5,3.8-1.5,4.4s-3.6,1-7.5,1c-5.9,0-7.8-1-8.3-1.8S129,28.5,129,19.8c0-6.4.8-8.6,1.4-9.2S133,9.2,139,9.2c4.5,0,6.2.5,6.9.9.9.6,1.3,2,1.3,4.3v1.5h9.2l-.1-1.4c0-4.9-1.1-8.2-3.2-10S146.8,2,140.5,2c-8.5,0-14,1-16.7,3s-4.1,6.3-4.1,12.6c0,10.7,1,17.2,3,19.7s6.8,3.7,14.8,3.8h1.1c7.6,0,12.3-.8,14.6-2.4s3.5-5.1,3.5-10.5V26.4Z"
  />
  <path
    class="cls-2"
    d="M183.3,15.3c-2-1.4-5.6-2-11.1-2-5.1,0-8.4.6-10.1,1.7s-2.7,3.4-2.7,6.8v.5h8.3v-.5c0-.8,0-3.1,4.9-3.1,3,0,4.1.5,4.6.9.7.6,1,1.8,1,3.7V26c-1.5-1.4-4.4-2.1-8.6-2.1-3.8,0-6.7.7-8.6,2.1a7.7,7.7,0,0,0-3,6.6,7.61,7.61,0,0,0,3,6.4c1.8,1.4,4.5,2.1,8,2.1h.4c4.2,0,7.2-1,9-2.8l-.2,2.5h8.2V23.2C186.3,19.3,185.3,16.7,183.3,15.3ZM171.8,29.1c6.4,0,6.4,2.6,6.4,3.4a2.67,2.67,0,0,1-1.4,2.5,9,9,0,0,1-4.6.9c-3.2,0-4.4-.4-4.9-.7a3.61,3.61,0,0,1-1-2.9C166.3,31.5,166.3,29.1,171.8,29.1Z"
  />
  <path
    class="cls-2"
    d="M232.9,15.7q-2.7-2.4-8.1-2.4c-4.4,0-7.5,1.4-9.1,4.1-1.1-2.7-4.2-4.1-9.1-4.1-4,0-6.9,1.1-8.6,3.2l.1-2.9h-8.2V40.9h8.2V25.1a5.92,5.92,0,0,1,1.5-4.4,6.22,6.22,0,0,1,4.5-1.4c2.4,0,3.4.5,3.8.9s.8,1.4.8,3.9V40.9h8.2V25a5.68,5.68,0,0,1,1.5-4.3,6.7,6.7,0,0,1,4.5-1.4c3.2,0,4.7,1.6,4.7,5V40.8h8.2V22.9C235.6,19.7,234.7,17.3,232.9,15.7Z"
  />
  <path
    class="cls-2"
    d="M263.7,25.7c-1.6-1-5-1.6-10.2-1.9-4.8-.2-6.1-.5-6.4-.6s-.7-.9-.7-2.1a1.88,1.88,0,0,1,1.1-1.9,7.48,7.48,0,0,1,3.9-.7c3.1,0,4.3.2,4.7.4a2.48,2.48,0,0,1,.9,2l.2.9h7.9v-.5c0-3.2-1-5.3-2.8-6.5s-5.2-1.6-10.3-1.6c-5.4,0-9,.6-10.9,1.7s-3,3.4-3,6.5c0,3.5,1.1,5.9,3.3,7.1s6.3,1.6,12.8,1.6a4.54,4.54,0,0,1,2.8.7,2.73,2.73,0,0,1,.9,2.1,2.17,2.17,0,0,1-1.4,2.1,11.25,11.25,0,0,1-4.8.8c-2.7,0-4.4-.4-5.1-1.3a1.88,1.88,0,0,1-.4-1.6,2.41,2.41,0,0,1,.2-.8l.2-.7H238v1.2c0,3.2,1,5.5,3.1,6.7,1.9,1.1,5.1,1.7,9.8,1.7h.9c5.4,0,9.1-.6,11.3-1.9s3.3-3.7,3.3-7.1C266.2,29,265.4,26.8,263.7,25.7Z"
  />
  <path
    class="cls-2"
    d="M2,65.3V52.6H5.6a5.87,5.87,0,0,1,2.9.7,4.52,4.52,0,0,1,2,2.1,6.67,6.67,0,0,1,.7,3.1v.8a7.08,7.08,0,0,1-.7,3.2,4.52,4.52,0,0,1-2,2.1,6.43,6.43,0,0,1-3,.8ZM3.7,54V64H5.5a3.85,3.85,0,0,0,3-1.2,4.83,4.83,0,0,0,1.1-3.4v-.7a5.23,5.23,0,0,0-1-3.4,3.51,3.51,0,0,0-2.9-1.2h-2Z"
  />
  <path
    class="cls-2"
    d="M13.1,53.3a1.94,1.94,0,0,1,.2-.7,1.09,1.09,0,0,1,.7-.3.89.89,0,0,1,.7.3.63.63,0,0,1,.2.7.83.83,0,0,1-.74.9H13.9a.89.89,0,0,1-.7-.3A4.17,4.17,0,0,1,13.1,53.3Zm1.8,12H13.3V55.8h1.6Z"
  />
  <path
    class="cls-2"
    d="M22.6,62.8a1.23,1.23,0,0,0-.5-1,4.86,4.86,0,0,0-1.7-.6,7.82,7.82,0,0,1-2-.6,3.1,3.1,0,0,1-1.1-.9,1.82,1.82,0,0,1-.3-1.2,2.61,2.61,0,0,1,1-2,3.77,3.77,0,0,1,2.5-.8,4.64,4.64,0,0,1,2.6.8,2.8,2.8,0,0,1,1,2.1H22.4a1.44,1.44,0,0,0-.5-1.1,2.37,2.37,0,0,0-1.4-.5,2.32,2.32,0,0,0-1.4.4,1.23,1.23,0,0,0-.5,1,1.05,1.05,0,0,0,.5.9,4.86,4.86,0,0,0,1.7.6,6.7,6.7,0,0,1,2,.6,3.1,3.1,0,0,1,1.1.9,2.83,2.83,0,0,1,.4,1.3,2.61,2.61,0,0,1-1,2,5,5,0,0,1-2.6.8,4.45,4.45,0,0,1-2-.4A2.59,2.59,0,0,1,17.3,64a2.94,2.94,0,0,1-.5-1.6h1.6a1.74,1.74,0,0,0,.6,1.2,2.94,2.94,0,0,0,1.6.5,2.81,2.81,0,0,0,1.5-.4A.81.81,0,0,0,22.6,62.8Z"
  />
  <path
    class="cls-2"
    d="M29.8,64.2a2.69,2.69,0,0,0,1.5-.5,1.69,1.69,0,0,0,.7-1.3h1.5a2,2,0,0,1-.6,1.5,4.15,4.15,0,0,1-1.4,1.2,4.26,4.26,0,0,1-4.9-.8,5.1,5.1,0,0,1-1.1-3.5v-.3A7.37,7.37,0,0,1,26,58a3.55,3.55,0,0,1,1.5-1.7,4.59,4.59,0,0,1,2.2-.6,3.53,3.53,0,0,1,2.6,1,3.24,3.24,0,0,1,1.1,2.5H32a2.12,2.12,0,0,0-.7-1.5,2.21,2.21,0,0,0-1.5-.6,2.31,2.31,0,0,0-1.9.9,4.84,4.84,0,0,0-.7,2.6v.3a3.67,3.67,0,0,0,.7,2.5A2.76,2.76,0,0,0,29.8,64.2Z"
  />
  <path
    class="cls-2"
    d="M34.6,60.5a6.92,6.92,0,0,1,.5-2.5,3.93,3.93,0,0,1,3.8-2.3A4,4,0,0,1,42,57a5.24,5.24,0,0,1,1.2,3.6v.1a6.92,6.92,0,0,1-.5,2.5,4.11,4.11,0,0,1-1.5,1.7,4.62,4.62,0,0,1-2.3.6,4.37,4.37,0,0,1-3.1-1.3,5.13,5.13,0,0,1-1.2-3.5Zm1.6.2a3.77,3.77,0,0,0,.8,2.5,2.33,2.33,0,0,0,2,1,2.22,2.22,0,0,0,2-1,4.88,4.88,0,0,0-.1-5.2,2.32,2.32,0,0,0-3.24-.53l-.16.13c-.2.1-.3.3-.4.4A4.41,4.41,0,0,0,36.2,60.7Z"
  />
  <path class="cls-2" d="M47.9,63.1l2.3-7.3h1.7l-3.4,9.5H47.3l-3.4-9.5h1.7Z" />
  <path
    class="cls-2"
    d="M56.9,65.5a4,4,0,0,1-3.1-1.3,4.58,4.58,0,0,1-1.2-3.4v-.3a6.49,6.49,0,0,1,.5-2.5,4.11,4.11,0,0,1,1.5-1.7,3.65,3.65,0,0,1,2.1-.6,3.51,3.51,0,0,1,2.9,1.2,5.33,5.33,0,0,1,1,3.5V61H54.2a3.84,3.84,0,0,0,.8,2.3,2.51,2.51,0,0,0,2,.9,3.9,3.9,0,0,0,1.5-.3,4.3,4.3,0,0,0,1-.9l1,.8A4.47,4.47,0,0,1,56.9,65.5ZM56.7,57a2,2,0,0,0-1.6.7,3.2,3.2,0,0,0-.8,2H59v-.1a2.63,2.63,0,0,0-.7-1.9A2,2,0,0,0,56.7,57Z"
  />
  <path
    class="cls-2"
    d="M66.7,57.3c-.3,0-.5-.1-.8-.1a2.3,2.3,0,0,0-2.2,1.3v6.7H62.1V55.7h1.6v1.1A2.65,2.65,0,0,1,66,55.5a1.66,1.66,0,0,1,.7.1Z"
  />
  <path
    class="cls-2"
    d="M74.1,53.5v2.3h1.8V57H74.1v6a1.86,1.86,0,0,0,.2.8,1.12,1.12,0,0,0,.8.3,2.18,2.18,0,0,0,.8-.1v1.3a4.86,4.86,0,0,1-1.2.2,2,2,0,0,1-1.6-.7,3.09,3.09,0,0,1-.6-1.9V57H70.8V55.8h1.7V53.5Z"
  />
  <path
    class="cls-2"
    d="M79,57a3.14,3.14,0,0,1,2.8-1.3c2,0,3,1.1,3,3.4v6.3H83.2V59a2.06,2.06,0,0,0-.5-1.5,1.9,1.9,0,0,0-1.4-.5,2.32,2.32,0,0,0-1.4.4,3.1,3.1,0,0,0-.9,1.1v6.7H77.4V51.9H79Z"
  />
  <path
    class="cls-2"
    d="M90.9,65.5a4,4,0,0,1-3.1-1.3,4.58,4.58,0,0,1-1.2-3.4v-.3a6.49,6.49,0,0,1,.5-2.5,4.11,4.11,0,0,1,1.5-1.7,3.65,3.65,0,0,1,2.1-.6,3.51,3.51,0,0,1,2.9,1.2,5.33,5.33,0,0,1,1,3.5V61H88.2a3.38,3.38,0,0,0,.9,2.3,2.51,2.51,0,0,0,2,.9,3.24,3.24,0,0,0,1.4-.3,4.3,4.3,0,0,0,1-.9l1,.8A4.18,4.18,0,0,1,90.9,65.5ZM90.7,57a2,2,0,0,0-1.6.7,3.2,3.2,0,0,0-.8,2h4.8v-.1a2.63,2.63,0,0,0-.7-1.9A2.32,2.32,0,0,0,90.7,57Z"
  />
  <path
    class="cls-2"
    d="M108.5,63.1l1.8-7.2h1.6l-2.8,9.5h-1.3l-2.3-7.2-2.2,7.2H102l-2.8-9.5h1.6l1.9,7.1,2.2-7.1h1.3Z"
  />
  <path
    class="cls-2"
    d="M112.8,60.5a6.92,6.92,0,0,1,.5-2.5,4.11,4.11,0,0,1,1.5-1.7,4.28,4.28,0,0,1,2.2-.6,4,4,0,0,1,3.1,1.3,5.24,5.24,0,0,1,1.2,3.6v.1a6.92,6.92,0,0,1-.5,2.5,4.11,4.11,0,0,1-1.5,1.7,4.62,4.62,0,0,1-2.3.6,3.89,3.89,0,0,1-3.2-1.3,5.13,5.13,0,0,1-1.2-3.5Zm1.7.2a4.25,4.25,0,0,0,.7,2.5,2.61,2.61,0,0,0,2,1,2.33,2.33,0,0,0,2-1,4.88,4.88,0,0,0-.1-5.2,2.33,2.33,0,0,0-2-1,2.29,2.29,0,0,0-1.9,1A3.67,3.67,0,0,0,114.5,60.7Z"
  />
  <path
    class="cls-2"
    d="M127.7,57.3c-.3,0-.5-.1-.8-.1a2.3,2.3,0,0,0-2.2,1.3v6.7h-1.6V55.7h1.6v1.1a2.65,2.65,0,0,1,2.3-1.3,1.66,1.66,0,0,1,.7.1Z"
  />
  <path class="cls-2" d="M130.6,65.3H129V51.9h1.6Z" />
  <path
    class="cls-2"
    d="M132.4,60.5a5.52,5.52,0,0,1,1-3.5,2.91,2.91,0,0,1,2.7-1.3,3.46,3.46,0,0,1,2.6,1.1V51.9h1.6V65.4h-1.5l-.1-1a3.39,3.39,0,0,1-4.78.41l-.12-.11c-.2-.1-.3-.3-.5-.5a5.52,5.52,0,0,1-1-3.5Zm1.7.2a4.25,4.25,0,0,0,.7,2.5,2.14,2.14,0,0,0,1.8.9,2.21,2.21,0,0,0,2.2-1.4V58.3a2.3,2.3,0,0,0-2.2-1.3,2.45,2.45,0,0,0-1.9.9,4.65,4.65,0,0,0-.6,2.8Z"
  />
  <path
    class="cls-2"
    d="M146.2,60.5a5.42,5.42,0,0,1,.6-2.5,4.11,4.11,0,0,1,1.5-1.7,4.28,4.28,0,0,1,2.2-.6,4,4,0,0,1,3.1,1.3,5.24,5.24,0,0,1,1.2,3.6v.1a6.92,6.92,0,0,1-.5,2.5,4.11,4.11,0,0,1-1.5,1.7,4.62,4.62,0,0,1-2.3.6,4,4,0,0,1-3.1-1.3,5.13,5.13,0,0,1-1.2-3.5Zm1.7.2a4.25,4.25,0,0,0,.7,2.5,2.61,2.61,0,0,0,2,1,2.33,2.33,0,0,0,2-1,4.88,4.88,0,0,0-.1-5.2,2.61,2.61,0,0,0-2-1,2.29,2.29,0,0,0-1.9,1A3.67,3.67,0,0,0,147.9,60.7Z"
  />
  <path
    class="cls-2"
    d="M157.3,65.3V57.1h-1.5V55.9h1.5v-1a2.74,2.74,0,0,1,.8-2.3,2.84,2.84,0,0,1,2.3-.8,4.63,4.63,0,0,1,1.1.2l-.1,1.3a2.74,2.74,0,0,0-.9-.1,1.35,1.35,0,0,0-1.2.5,1.59,1.59,0,0,0-.4,1.3v1h2v1.3h-2v8.2h-1.6Z"
  />
  <path
    class="cls-2"
    d="M168.9,52.6,173.1,63l4.2-10.4h2.2V65.3h-1.7v-5L178,55l-4.2,10.3h-1.3L168.2,55l.2,5.3v5h-1.7V52.6Z"
  />
  <path
    class="cls-2"
    d="M184.9,63l2.2-7.1h1.7L185,66.8c-.6,1.6-1.5,2.4-2.8,2.4h-.3l-.6-.1V67.8h.4a2.79,2.79,0,0,0,1.3-.3,2.53,2.53,0,0,0,.8-1.2l.4-1-3.4-9.4h1.8Z"
  />
  <path class="cls-2" d="M197.2,59.7h-5.4v5.6h-1.7V52.6H198V54h-6.2v4.4h5.4Z" />
  <path
    class="cls-2"
    d="M203.8,57.3c-.3,0-.5-.1-.8-.1a2.3,2.3,0,0,0-2.2,1.3v6.7h-1.6V55.7h1.6v1.1a2.65,2.65,0,0,1,2.3-1.3,1.66,1.66,0,0,1,.7.1Z"
  />
  <path
    class="cls-2"
    d="M208.7,65.5a4,4,0,0,1-3.1-1.3,4.58,4.58,0,0,1-1.2-3.4v-.3a6.92,6.92,0,0,1,.5-2.5,4.11,4.11,0,0,1,1.5-1.7,3.65,3.65,0,0,1,2.1-.6,3.51,3.51,0,0,1,2.9,1.2,5.33,5.33,0,0,1,1,3.5V61H206a4,4,0,0,0,.8,2.3,2.51,2.51,0,0,0,2,.9,3.24,3.24,0,0,0,1.4-.3,4.76,4.76,0,0,0,1.1-.9l1,.8A4.18,4.18,0,0,1,208.7,65.5Zm-.2-8.5a2,2,0,0,0-1.6.7,3.2,3.2,0,0,0-.8,2h4.8v-.1a2.63,2.63,0,0,0-.7-1.9A2.32,2.32,0,0,0,208.5,57Z"
  />
  <path
    class="cls-2"
    d="M217.8,65.5a4,4,0,0,1-3.1-1.3,4.58,4.58,0,0,1-1.2-3.4v-.3A6.49,6.49,0,0,1,214,58a4.11,4.11,0,0,1,1.5-1.7,3.65,3.65,0,0,1,2.1-.6,3.51,3.51,0,0,1,2.9,1.2,5.33,5.33,0,0,1,1,3.5V61h-6.4a4,4,0,0,0,.8,2.3,2.51,2.51,0,0,0,2,.9,3.24,3.24,0,0,0,1.4-.3,4.3,4.3,0,0,0,1-.9l1,.8A4,4,0,0,1,217.8,65.5Zm-.2-8.5a2,2,0,0,0-1.6.7,3.2,3.2,0,0,0-.8,2H220v-.1a2.63,2.63,0,0,0-.7-1.9A2.32,2.32,0,0,0,217.6,57Z"
  />
  <path
    class="cls-2"
    d="M232.7,61.3a4.61,4.61,0,0,1-1.5,3.1,4.43,4.43,0,0,1-3.3,1.1,4.22,4.22,0,0,1-3.6-1.6,6.75,6.75,0,0,1-1.4-4.3V58.4a8.22,8.22,0,0,1,.6-3.1,4.6,4.6,0,0,1,1.8-2.1,5,5,0,0,1,2.7-.7,4.07,4.07,0,0,1,3.2,1.1,4.26,4.26,0,0,1,1.4,3.1H231a4.33,4.33,0,0,0-.9-2.2,3.09,3.09,0,0,0-2-.7,3,3,0,0,0-2.6,1.2,5.14,5.14,0,0,0-.9,3.4v1.2a4.87,4.87,0,0,0,.9,3.3,2.62,2.62,0,0,0,2.4,1.2,3.09,3.09,0,0,0,2.1-.6,3.73,3.73,0,0,0,1-2.2Z"
  />
  <path
    class="cls-2"
    d="M240.2,65.3a3.78,3.78,0,0,1-.2-1,3.56,3.56,0,0,1-2.7,1.2,3.23,3.23,0,0,1-2.3-.8,2.51,2.51,0,0,1-.9-2,2.83,2.83,0,0,1,1.1-2.3,5,5,0,0,1,3.2-.8H240v-.7a1.89,1.89,0,0,0-.5-1.3,2.06,2.06,0,0,0-1.5-.5,2.32,2.32,0,0,0-1.4.4,1.16,1.16,0,0,0-.6,1.1h-1.6a2.37,2.37,0,0,1,.5-1.4,3.57,3.57,0,0,1,1.4-1,4,4,0,0,1,1.9-.4,3.64,3.64,0,0,1,2.6.8,3.18,3.18,0,0,1,1,2.2v4.3a7.46,7.46,0,0,0,.3,2.1v.1Zm-2.7-1.2a2.32,2.32,0,0,0,1.4-.4,2.41,2.41,0,0,0,1-1v-2h-1.3c-2,0-3,.6-3,1.7a1.7,1.7,0,0,0,.5,1.2A2,2,0,0,0,237.5,64.1Z"
  />
  <path
    class="cls-2"
    d="M245.3,55.8v1a3.31,3.31,0,0,1,2.8-1.2,2.78,2.78,0,0,1,2.7,1.5A3.25,3.25,0,0,1,252,56a4,4,0,0,1,1.8-.4c2.1,0,3.1,1.1,3.2,3.3v6.4h-1.6V59.1a2.06,2.06,0,0,0-.5-1.5,1.85,1.85,0,0,0-1.6-.5,2.69,2.69,0,0,0-1.5.5,2.12,2.12,0,0,0-.7,1.5v6.3h-1.6V59.2A1.83,1.83,0,0,0,248,57.1h-.53a2.3,2.3,0,0,0-2.2,1.3v6.9h-1.6V55.8Z"
  />
  <path
    class="cls-2"
    d="M264.6,62.8a1.23,1.23,0,0,0-.5-1,4.86,4.86,0,0,0-1.7-.6,6.7,6.7,0,0,1-2-.6,3.1,3.1,0,0,1-1.1-.9,2.85,2.85,0,0,1-.4-1.2,2.61,2.61,0,0,1,1-2,3.77,3.77,0,0,1,2.5-.8,4.64,4.64,0,0,1,2.6.8,2.8,2.8,0,0,1,1,2.1h-1.6a1.44,1.44,0,0,0-.6-1.2,2.37,2.37,0,0,0-1.4-.5,2.32,2.32,0,0,0-1.4.4,1.23,1.23,0,0,0-.5,1,1.05,1.05,0,0,0,.5.9,4.86,4.86,0,0,0,1.7.6,6.7,6.7,0,0,1,2,.6,3.1,3.1,0,0,1,1.1.9,2.83,2.83,0,0,1,.4,1.3,2.61,2.61,0,0,1-1,2,5,5,0,0,1-2.6.8,4.45,4.45,0,0,1-2-.4,3.57,3.57,0,0,1-1.4-1,2.94,2.94,0,0,1-.5-1.6h1.6a1.64,1.64,0,0,0,.6,1.3,3,3,0,0,0,1.6.5,2.81,2.81,0,0,0,1.5-.4A1.1,1.1,0,0,0,264.6,62.8Z"
  />
</svg>
